<svg width="80" height="72" viewBox="0 0 80 72" fill="none" xmlns="http://www.w3.org/2000/svg">
<path d="M59.7957 69.7482C64.9999 67.5971 69.7877 63.8501 72.9796 60.1725C79.4327 52.6785 80.4735 41.6457 78.3225 32.0007C77.2123 26.9353 75.2694 21.9393 72.1469 17.776C64.2366 6.95138 50.4976 0.983945 37.175 0.0818918C28.9177 -0.473218 19.8972 1.81661 12.9583 6.25748C1.64795 13.6127 -3.41742 29.2945 2.48062 42.409C7.89294 54.4133 16.7053 52.1928 26.4197 57.5357C34.3994 61.9072 39.1873 70.789 49.1792 71.691C52.7181 71.9686 56.3956 71.2053 59.7957 69.7482Z" fill="#F4F4F4"/>
<path d="M2.55013 42.3395C7.96245 54.3438 16.7748 52.1233 26.4892 57.4663C34.4689 61.8378 39.2568 70.7195 49.2487 71.6216C52.7182 71.8991 56.3264 71.1358 59.7958 69.6787C61.8775 68.846 63.8204 67.7358 65.6939 66.4868C42.4486 65.3072 15.3871 47.4049 10.6686 32.7639C7.33796 22.3556 11.2237 11.8779 15.1095 4.86963C14.3462 5.28596 13.6523 5.70229 12.9584 6.11862C1.71747 13.5432 -3.34791 29.2251 2.55013 42.3395Z" fill="#E3E3E3"/>
<path d="M54.9384 54.8988C63.4076 54.8988 70.2733 48.0331 70.2733 39.5639C70.2733 31.0947 63.4076 24.229 54.9384 24.229C46.4692 24.229 39.6035 31.0947 39.6035 39.5639C39.6035 48.0331 46.4692 54.8988 54.9384 54.8988Z" fill="#EBB64A"/>
<path d="M58.8936 51.8458C50.4282 51.8458 43.5587 44.9763 43.5587 36.5109C43.5587 32.4864 45.1546 28.8088 47.722 26.0332C42.9342 28.6006 39.6035 33.666 39.6035 39.564C39.6035 48.0294 46.473 54.8989 54.9384 54.8989C59.3793 54.8989 63.3345 53.0254 66.11 50.0417C63.959 51.2213 61.461 51.8458 58.8936 51.8458Z" fill="#E3A63B"/>
<path d="M66.3875 40.5351C64.3058 42.1311 64.5833 37.3432 61.8772 33.8738C59.171 30.4044 54.4526 29.5023 56.5343 27.9064C58.6159 26.3104 62.5017 27.7676 65.2078 31.237C67.9834 34.7759 68.4691 38.8698 66.3875 40.5351Z" fill="white"/>
</svg>
