<svg width="87" height="80" viewBox="0 0 87 80" fill="none" xmlns="http://www.w3.org/2000/svg">
<path d="M30.085 0.790689C26.8069 -0.389412 23.1355 -0.258282 19.923 1.24963C13.1046 4.52769 1.56584 10.8216 0.12349 17.181C-1.90891 26.3596 21.4964 37.9639 44.4429 57.2389C67.3893 76.5139 69.8806 84.2501 74.011 77.6284C78.1413 71.0067 94.5316 53.633 81.5505 33.2435C71.3229 17.1154 42.0171 5.11773 30.085 0.790689Z" fill="#ECB579"/>
<path d="M74.0108 77.6283C76.3055 73.9569 82.4682 66.8763 85.1562 57.8288C81.5504 61.3036 77.0266 64.1883 71.7162 62.6804C59.194 59.1401 35.0019 29.1786 16.907 17.9021C11.0065 14.1651 6.22055 12.9194 2.54912 12.9194C1.36902 14.3618 0.516726 15.8041 0.18892 17.2465C-1.84348 26.425 21.5619 38.0294 44.5083 57.3044C67.3236 76.5138 69.8805 84.25 74.0108 77.6283Z" fill="#DFA164"/>
<path d="M28.6428 41.3071C31.1341 40.5859 33.8221 40.5859 36.4445 40.5204C37.1001 40.5204 37.7558 40.5204 38.4114 40.5204C49.0323 40.2581 57.6864 36.9145 62.8657 31.014C63.9802 29.7028 64.9637 28.326 65.9471 26.9492C66.3404 26.3591 66.7338 25.7691 67.1927 25.179C68.1106 23.8678 69.1596 22.6221 70.2085 21.3765C69.7496 21.0487 69.2907 20.7209 68.8318 20.3931C67.7828 21.6387 66.7994 22.8844 65.816 24.1956C65.4226 24.7857 64.9637 25.3757 64.5703 25.9658C63.6524 27.277 62.669 28.6538 61.62 29.8994C56.7685 35.4721 48.5078 38.6191 38.4114 38.8813C37.7558 38.8813 37.1657 38.8813 36.5101 38.8813C33.7565 38.8813 31.003 38.9469 28.2494 39.7336C26.7415 40.1925 25.3647 40.7826 24.0535 41.5693C24.578 41.8972 25.0369 42.2905 25.5614 42.6183C26.4792 42.0938 27.5282 41.6349 28.6428 41.3071Z" fill="#F2D0A4"/>
<path d="M16.3827 26.0317C17.5628 26.3595 18.7429 26.6217 19.8575 26.9495C25.5613 28.3919 32.2485 29.572 38.5424 27.474C43.2628 25.9005 47.1965 22.688 50.7368 19.3444C52.9659 17.312 55.0638 15.1485 57.1618 13.0505C56.6373 12.7883 56.1784 12.4605 55.6539 12.1982C53.687 14.2306 51.6546 16.1975 49.6222 18.0987C46.2131 21.2457 42.4761 24.3926 38.0179 25.835C32.183 27.7363 25.758 26.6217 20.2508 25.2449C19.0707 24.9827 17.9562 24.6549 16.7761 24.3271C11.9901 23.0814 7.00746 21.7702 1.95925 21.7702C1.63144 21.7702 1.30364 21.7702 0.97583 21.7702C1.30364 22.2947 1.63144 22.8847 2.02481 23.4092C6.87634 23.5403 11.7279 24.786 16.3827 26.0317Z" fill="#F2D0A4"/>
<path d="M19.7262 35.0787C24.25 33.6364 29.0359 33.702 32.7729 33.8986C33.1007 33.8986 33.4285 33.9642 33.8219 33.9642C36.3132 34.0953 38.8701 34.2265 41.427 33.702C44.6395 32.9808 47.3931 31.1451 49.95 29.3749C53.9492 26.5558 58.0796 23.4088 61.1609 19.1474C61.8165 18.2295 62.341 17.3772 62.8655 16.3938C62.4066 16.066 61.9477 15.8037 61.4232 15.5415C60.9642 16.4594 60.4398 17.3117 59.7841 18.164C56.8994 22.2287 52.9002 25.3101 48.9665 27.9981C46.5408 29.7027 43.9183 31.4073 40.9681 32.0629C38.6734 32.5874 36.1821 32.4563 33.8219 32.3252C33.4941 32.3252 33.1663 32.2596 32.7729 32.2596C28.9048 32.0629 23.8566 31.9974 19.1362 33.5053C17.6938 33.9642 16.3826 34.5543 15.137 35.2099C15.5959 35.6032 16.1204 35.931 16.6449 36.3244C17.6283 35.7999 18.6773 35.4065 19.7262 35.0787Z" fill="#F2D0A4"/>
<path d="M35.1332 13.3128C32.0518 14.6896 28.1837 14.6896 23.3322 13.3128C18.5462 11.9361 14.0225 9.70697 10.0233 6.75672C9.4988 7.08453 9.03987 7.41233 8.51538 7.74014C12.7769 10.9526 17.6939 13.444 22.8733 14.9519C28.1182 16.4598 32.3797 16.4598 35.8544 14.8863C39.5914 13.1817 42.0172 9.96922 44.1151 6.49448C43.5906 6.23223 43.0661 6.03555 42.5416 5.83887C40.5092 8.9858 38.4113 11.8705 35.1332 13.3128Z" fill="#F2D0A4"/>
<path d="M13.7603 4.46189C17.6939 6.6254 22.0865 8.52668 26.7414 8.9856C28.8393 9.18229 30.6095 9.05117 32.1174 8.46112C34.3465 7.67439 36.2477 5.96978 37.6245 3.67514C37.1 3.47846 36.5756 3.21621 36.0511 3.01953C34.871 4.85524 33.3631 6.23204 31.5929 6.82209C30.3472 7.28102 28.8393 7.41213 26.9381 7.21544C22.9388 6.82208 19.0707 5.24862 15.5304 3.4129C14.9404 3.80627 14.3503 4.13408 13.7603 4.46189Z" fill="#F2D0A4"/>
<path d="M40.5092 18.0331C33.822 22.4913 24.7745 23.0813 17.5628 19.541C15.8582 18.6887 14.1536 17.6397 12.5801 16.5908C9.69545 14.755 6.7452 12.7882 3.27045 12.067C2.81152 12.526 2.3526 13.0505 1.95923 13.5749C2.28703 13.6405 2.54928 13.6405 2.87709 13.7061C6.02402 14.3617 8.77759 16.1318 11.6623 17.9675C13.3013 19.0165 15.0715 20.1311 16.8416 21.0489C24.5778 24.8515 34.2809 24.1959 41.4271 19.4099C45.1641 16.9186 48.1799 13.3783 50.0811 9.31346C49.5567 9.05122 49.0977 8.85453 48.5732 8.59229C46.8031 12.3948 44.0495 15.6729 40.5092 18.0331Z" fill="#F2D0A4"/>
<path d="M67.0614 73.6291C69.0938 67.3352 70.9951 61.4347 75.3221 56.8454C76.5022 55.5998 77.879 54.4852 79.1902 53.3707C79.7147 52.9118 80.2392 52.4528 80.8292 51.9939C82.7961 50.2893 84.6318 48.4536 86.4019 46.5523C86.3364 45.8311 86.2053 45.11 86.0741 44.3232C84.1729 46.6179 82.0093 48.7814 79.7147 50.7483C79.1902 51.2072 78.6657 51.6661 78.1412 52.0595C76.7644 53.174 75.3221 54.3541 74.0764 55.6653C69.4872 60.5169 67.4548 66.8763 65.4224 73.1046C65.1601 73.9569 64.8979 74.8092 64.5701 75.6615C65.029 76.1204 65.4879 76.5138 65.9469 76.9072C66.3402 75.7926 66.668 74.7436 67.0614 73.6291Z" fill="#F2D0A4"/>
<path d="M75.4533 75.4645C75.8467 74.8744 76.3056 74.2844 76.7645 73.6288C76.5023 72.0553 76.3712 70.4163 76.6334 68.8428C77.0923 65.6959 78.7314 62.7456 80.4359 60.0576C82.2061 57.2385 84.1729 54.4849 86.2709 51.928C86.3365 51.0102 86.402 50.0923 86.402 49.1089C83.714 52.3214 81.2227 55.665 78.9936 59.1397C77.1579 62.0244 75.3877 65.1058 74.9288 68.5806C74.6666 70.9408 74.9288 73.2354 75.4533 75.4645Z" fill="#F2D0A4"/>
<path d="M61.4889 64.2536C63.9147 60.91 66.8649 57.9598 69.7496 55.0751C71.8476 52.9115 74.0767 50.748 76.0435 48.3878C79.1904 44.6508 81.6818 40.7172 83.4519 36.5868C83.1241 35.9312 82.7963 35.3412 82.4029 34.6855C80.6984 39.0126 78.0759 43.3396 74.7323 47.2733C72.7654 49.5679 70.6019 51.797 68.504 53.895C65.6193 56.8452 62.6035 59.861 60.1121 63.2702C58.8665 64.9748 57.8175 66.745 57.0308 68.4496C57.4897 68.8429 57.8831 69.3018 58.342 69.6952C59.1287 67.8595 60.1777 66.0238 61.4889 64.2536Z" fill="#F2D0A4"/>
<path d="M51.0646 47.4046C51.8513 47.0112 52.7036 46.6179 53.4903 46.159C58.0141 43.9299 62.6689 41.6352 66.537 38.2916C70.274 35.0791 73.3554 30.8832 75.5189 26.0317C75.1255 25.6383 74.6666 25.2449 74.2077 24.8516C72.1097 29.7031 69.1595 33.8334 65.4225 37.0459C61.6855 40.2584 57.0962 42.4875 52.7036 44.7166C51.9169 45.11 51.0646 45.5033 50.2778 45.9623C46.4097 47.9291 42.4761 50.1582 39.198 53.1084C39.6569 53.4362 40.0503 53.8296 40.5092 54.1574C43.6562 51.4038 47.3931 49.3059 51.0646 47.4046Z" fill="#F2D0A4"/>
<path d="M48.9011 60.9756C51.7858 58.2876 55.1294 55.9929 58.3419 53.8294C61.6855 51.5348 65.1602 49.1746 68.1761 46.3554C72.962 41.8973 76.5023 36.3246 79.9115 30.9486C79.5837 30.4896 79.1903 30.0307 78.797 29.5718C75.3878 35.0134 71.7819 40.7172 67.0615 45.1754C64.1113 47.9289 60.7021 50.2891 57.424 52.5182C54.146 54.7473 50.7368 57.0419 47.7865 59.8611C47.721 59.9266 47.6554 59.9922 47.5898 60.0577C47.9832 60.32 48.4421 60.7133 48.9011 60.9756C48.8355 61.0411 48.8355 61.0411 48.9011 60.9756Z" fill="#F2D0A4"/>
</svg>
