<svg width="130" height="103" viewBox="0 0 130 103" fill="none" xmlns="http://www.w3.org/2000/svg">
<path d="M46.7611 58.3906C46.7611 58.3906 22.1838 78.8286 16.7509 78.8286C11.318 78.8286 7.52361 70.2912 1.57331 77.4488C-4.46323 84.6064 8.81715 89.5219 8.81715 89.5219C8.81715 89.5219 5.62641 99.0079 12.3528 102.285C19.0793 105.562 19.7691 96.9382 21.4939 89.4357C23.1324 81.9331 55.5572 68.8252 55.5572 68.8252L46.7611 58.3906Z" fill="#F2D0A4"/>
<path d="M126.185 40.4533C137.827 19.9291 118.768 -4.99316 95.9158 0.870908C95.5709 0.957145 95.3122 1.04337 94.9672 1.12961C77.375 6.30378 40.7247 56.0621 41.7595 60.4602C43.398 67.5315 50.8143 59.5978 47.9685 65.6343C45.1227 71.6709 42.0182 75.8964 57.5407 72.7057C73.1495 69.5149 118.079 53.82 125.754 41.1432C125.926 40.8845 126.099 40.6258 126.185 40.4533Z" fill="#C89059"/>
<path d="M82.7217 24.4997C99.1066 9.23589 111.783 5.78646 118.424 5.26904C112.387 0.784755 104.453 -1.28492 95.9158 0.870986C95.5709 0.957222 95.3122 1.04345 94.9672 1.12968C77.375 6.30386 40.7247 56.0622 41.7595 60.4602C43.398 67.5316 50.8143 59.5979 47.9685 65.6344C45.1227 71.6709 42.0182 75.8965 57.5407 72.7058C59.8691 72.1883 62.8874 71.4122 66.3368 70.4636C64.957 60.7189 64.8708 41.1433 82.7217 24.4997Z" fill="#BA7F4A"/>
<path d="M91.2591 29.3288C90.3967 29.8462 89.1894 29.5875 88.672 28.7251C88.1546 27.8628 88.4133 26.6555 89.2756 26.138C90.138 25.6206 91.3453 25.8793 91.8627 26.7417C92.3801 27.6041 92.1214 28.8114 91.2591 29.3288Z" fill="#BA7F4A"/>
<path d="M83.5841 39.2462C82.5493 39.8498 81.2557 39.5911 80.5658 38.5563C79.9622 37.5214 80.2209 36.2279 81.2557 35.538C82.2906 34.9344 83.5841 35.193 84.274 36.2279C84.9639 37.2627 84.6189 38.5563 83.5841 39.2462Z" fill="#BA7F4A"/>
<path d="M77.8925 50.543C76.8576 51.1467 75.5641 50.888 74.8742 49.8531C74.2705 48.8183 74.5292 47.5248 75.5641 46.8349C76.5989 46.2312 77.8924 46.4899 78.5823 47.5248C79.2722 48.5596 78.8411 49.8532 77.8925 50.543Z" fill="#BA7F4A"/>
<path d="M87.7233 46.9208C86.9471 47.4382 85.9123 47.1795 85.4811 46.4034C84.9637 45.6273 85.2224 44.5925 85.9985 44.1613C86.7747 43.6439 87.8095 43.9026 88.2407 44.6787C88.7581 45.4548 88.4994 46.4034 87.7233 46.9208Z" fill="#BA7F4A"/>
<path d="M101.694 24.0683C100.918 24.5857 99.8827 24.327 99.4516 23.5509C98.9341 22.7747 99.1929 21.7399 99.969 21.3087C100.745 20.7913 101.78 21.05 102.211 21.8261C102.729 22.6023 102.47 23.6371 101.694 24.0683Z" fill="#BA7F4A"/>
</svg>
