<svg width="88" height="90" viewBox="0 0 88 90" fill="none" xmlns="http://www.w3.org/2000/svg">
<path d="M41.9125 77.6501C44.3825 74.4854 48.9365 73.9451 52.1012 76.4151C54.8799 78.5763 55.6518 82.3585 54.1081 85.3688L67.5386 90L78.1904 47.3156C76.7239 47.3156 75.1801 46.8525 73.8679 45.8491C70.8576 43.4563 70.3173 39.1338 72.6329 36.0463C74.717 33.3448 78.4992 32.6501 81.4323 34.1938L87.0669 11.578L69.2367 0L58.0446 8.18181C58.7393 10.4202 58.4305 12.9674 56.8868 14.8971C54.494 17.9846 50.0172 18.6021 46.8525 16.2864L17.2899 37.8216C17.9074 38.0532 18.5249 38.3619 19.0652 38.7479C21.5352 40.6775 21.9983 44.3053 20.0686 46.8525C18.1389 49.3225 14.5112 49.7856 11.964 47.8559C10.4974 46.6981 9.72556 45 9.72556 43.3019L0 50.4031L23.3105 74.6398L40.3688 80.506C40.7547 79.5798 41.2178 78.5763 41.9125 77.6501Z" fill="#EBB64A"/>
<path d="M69.391 0.0771484L58.1989 8.25897C58.8936 10.4974 58.5848 13.0446 57.0411 14.9742C54.6483 18.0617 50.1714 18.6792 47.0068 16.3636L17.4442 37.8988C18.0617 38.1303 18.6792 38.4391 19.2195 38.825C21.6895 40.7547 22.1526 44.3825 20.2229 46.9296C18.2932 49.3996 14.6654 49.8627 12.1183 47.9331C10.6517 46.7753 9.87986 45.0772 9.87986 43.379L0.154297 50.4802L23.4648 74.717L87.2212 11.578L69.391 0.0771484Z" fill="#EEC94D"/>
<path d="M45.4632 39.7512C43.8423 41.8352 40.9092 42.1439 38.8252 40.6002C36.7411 38.9793 36.4324 36.0462 37.9761 33.9621C39.597 31.8781 42.5301 31.5693 44.6142 33.1131C46.6982 34.734 47.0842 37.7443 45.4632 39.7512Z" fill="#EBB64A"/>
<path d="M76.4151 14.9744C75.4117 16.2866 73.482 16.5182 72.1699 15.5148C70.8577 14.5113 70.6261 12.5817 71.6296 11.2695C72.633 9.95729 74.5627 9.72574 75.8748 10.7292C77.187 11.7326 77.4186 13.6623 76.4151 14.9744Z" fill="#EBB64A"/>
<path d="M32.5729 60.8232C30.7976 63.0616 27.5558 63.4476 25.3174 61.7494C23.0789 59.9741 22.693 56.7323 24.3911 54.4939C26.1664 52.2554 29.4083 51.8695 31.6467 53.5676C33.9623 55.3429 34.3482 58.5848 32.5729 60.8232Z" fill="#EBB64A"/>
<path d="M65.3774 66.8438C63.9108 68.7735 61.1321 69.0822 59.2024 67.6157C57.2727 66.1491 56.964 63.3704 58.4305 61.4407C59.8971 59.511 62.6758 59.2023 64.6055 60.6688C66.5352 62.1354 66.8439 64.9141 65.3774 66.8438Z" fill="#CC9431"/>
</svg>
