<svg width="48" height="48" viewBox="0 0 48 48" fill="none" xmlns="http://www.w3.org/2000/svg">
<path d="M23.9 47.8C37.0996 47.8 47.8 37.0996 47.8 23.9C47.8 10.7004 37.0996 0 23.9 0C10.7004 0 0 10.7004 0 23.9C0 37.0996 10.7004 47.8 23.9 47.8Z" fill="#EBB64A"/>
<path d="M23.9001 45.4681C35.8119 45.4681 45.4684 35.8117 45.4684 23.8998C45.4684 11.988 35.8119 2.33154 23.9001 2.33154C11.9883 2.33154 2.33179 11.988 2.33179 23.8998C2.33179 35.8117 11.9883 45.4681 23.9001 45.4681Z" fill="white"/>
<path d="M4.66352 23.2523H19.2367C20.3378 23.2523 20.9207 21.8922 20.1435 21.1149L9.84509 10.7518C9.32694 10.2336 8.42017 10.2984 7.96678 10.8166C5.44076 13.8607 3.82152 17.6821 3.4329 21.8274C3.36813 22.6046 3.95106 23.2523 4.66352 23.2523Z" fill="#EEC94D"/>
<path d="M19.3014 24.4829H4.66349C3.88625 24.4829 3.30333 25.1306 3.43287 25.9079C3.82149 30.0531 5.5055 33.8745 7.96674 36.9187C8.42013 37.5016 9.3269 37.5664 9.84506 36.9835L20.1434 26.6851C20.9854 25.8431 20.4025 24.4829 19.3014 24.4829Z" fill="#EEC94D"/>
<path d="M21.8275 3.43266C17.6822 3.82128 13.8608 5.50529 10.8166 7.96653C10.2337 8.41992 10.1689 9.3267 10.7519 9.84486L21.0502 20.1432C21.8275 20.9205 23.1876 20.4023 23.1876 19.2365V4.66329C23.2524 3.95082 22.6047 3.36789 21.8275 3.43266Z" fill="#EEC94D"/>
<path d="M26.6851 20.2082L36.9834 9.90979C37.5016 9.39163 37.4368 8.48486 36.9187 8.03148C33.8745 5.50546 30.0531 3.88622 25.9078 3.4976C25.1306 3.43283 24.4829 4.01575 24.4829 4.72822V19.3014C24.4829 20.4025 25.8431 20.9854 26.6851 20.2082Z" fill="#EEC94D"/>
<path d="M28.4339 23.2524H43.007C43.7843 23.2524 44.3672 22.6047 44.2376 21.8275C43.849 17.6822 42.165 13.8608 39.7038 10.8166C39.2504 10.2337 38.3436 10.1689 37.8255 10.7519L27.5271 21.0502C26.7498 21.8922 27.3328 23.2524 28.4339 23.2524Z" fill="#EEC94D"/>
<path d="M43.072 24.4829H28.4988C27.3977 24.4829 26.8148 25.8431 27.592 26.6203L37.8904 36.9187C38.4085 37.4368 39.3153 37.3721 39.7687 36.8539C42.2947 33.8097 43.914 29.9883 44.3026 25.8431C44.3674 25.1306 43.7844 24.4829 43.072 24.4829Z" fill="#EEC94D"/>
<path d="M21.1149 27.5268L10.8165 37.8252C10.2983 38.3434 10.3631 39.2501 10.8813 39.7035C13.9254 42.2295 17.7468 43.8488 21.8921 44.2374C22.6693 44.3022 23.317 43.7192 23.317 43.0068V28.4336C23.2522 27.3325 21.8921 26.7496 21.1149 27.5268Z" fill="#EEC94D"/>
<path d="M26.6852 27.5268C25.908 26.7496 24.5479 27.2677 24.5479 28.4336V43.0067C24.5479 43.784 25.1955 44.3669 25.9728 44.2374C30.118 43.8487 33.9394 42.1647 36.9836 39.7035C37.5665 39.2501 37.6313 38.3433 37.0484 37.8252L26.6852 27.5268Z" fill="#EEC94D"/>
</svg>
